<svg xmlns="http://www.w3.org/2000/svg" viewBox="0 0 20 18"><defs><style>.cls-1{fill:#46321a;}</style></defs><title>Asset 1</title><g id="Layer_2" data-name="Layer 2"><g id="Products"><g id="Group_3" data-name="Group 3"><g id="Shape_10" data-name="Shape 10"><path class="cls-1" d="M12,8H11V7A1,1,0,1,0,9,7V8H8a1,1,0,0,0,0,2H9v1a1,1,0,1,0,2,0V10h1a1,1,0,0,0,0-2Zm6.19-6.1,0,0A6.21,6.21,0,0,0,10,1.26,6.2,6.2,0,0,0,1.24,2.58a6.49,6.49,0,0,0,.61,8.35l6,6.18a3,3,0,0,0,4.24,0l6-6.18A6.48,6.48,0,0,0,18.21,1.89ZM16.78,9.5v0l-6,6.12a1,1,0,0,1-1.41,0h0l-6-6.12a4.42,4.42,0,0,1,0-6.12,4.2,4.2,0,0,1,6,0,1,1,0,0,0,1.42,0h0a4.21,4.21,0,0,1,6,0A4.45,4.45,0,0,1,16.78,9.5Z"/></g></g></g></g></svg>