<svg xmlns="http://www.w3.org/2000/svg" viewBox="0 0 13 16"><defs><style>.cls-1{fill:#eac20a;}</style></defs><title>Group 3</title><g id="Layer_2" data-name="Layer 2"><g id="Products"><g id="Group_3" data-name="Group 3"><g id="Shape_11" data-name="Shape 11"><path class="cls-1" d="M8.94,11.2H4.06a.8.8,0,1,0,0,1.6H8.94a.8.8,0,1,0,0-1.6ZM4.06,6.4h.81a.8.8,0,1,0,0-1.6H4.06a.8.8,0,1,0,0,1.6ZM13,5.34V5.26A1.07,1.07,0,0,0,12.8,5L7.92.24A.91.91,0,0,0,7.69.09H7.62A.62.62,0,0,0,7.35,0H2.44A2.42,2.42,0,0,0,0,2.4V13.6A2.42,2.42,0,0,0,2.44,16h8.12A2.42,2.42,0,0,0,13,13.6v-8A1.6,1.6,0,0,0,13,5.34ZM8.12,2.73,10.23,4.8H8.94A.81.81,0,0,1,8.12,4ZM11.37,13.6a.8.8,0,0,1-.81.8H2.44a.81.81,0,0,1-.82-.8V2.4a.81.81,0,0,1,.82-.8H6.5V4A2.42,2.42,0,0,0,8.94,6.4h2.43ZM4.06,8a.8.8,0,1,0,0,1.6H8.94a.8.8,0,1,0,0-1.6Z"/></g></g></g></g></svg>