<svg xmlns="http://www.w3.org/2000/svg" viewBox="0 0 16 18"><defs><style>.cls-1{fill:#eac20a;}</style></defs><title>Group 3 (4)</title><g id="Layer_2" data-name="Layer 2"><g id="Products"><g id="Group_3" data-name="Group 3"><g id="Shape_5_copy" data-name="Shape 5 copy"><path class="cls-1" d="M16,11.69a2.69,2.69,0,0,0-1.69-2.5L16,2.89a.91.91,0,0,0-.16-.78.88.88,0,0,0-.7-.31H2.93L2.64.66A.9.9,0,0,0,1.78,0H0V1.8H1.09L3.3,10.12a.89.89,0,0,0,.89.67h9.14a.9.9,0,0,1,0,1.79H1.78a.9.9,0,0,0,0,1.8H2.83a2.71,2.71,0,0,0,1.59,3.46,2.67,2.67,0,0,0,3.42-1.62,2.77,2.77,0,0,0,0-1.84h2.1a2.71,2.71,0,0,0,1.59,3.46A2.67,2.67,0,0,0,15,16.22a2.73,2.73,0,0,0,.16-.94A2.57,2.57,0,0,0,14.75,14,2.68,2.68,0,0,0,16,11.69ZM12.52,9H4.89L3.41,3.6H14ZM5.33,16.18a.9.9,0,1,1,.89-.9A.89.89,0,0,1,5.33,16.18Zm7.11,0a.9.9,0,1,1,.89-.9A.89.89,0,0,1,12.44,16.18Z"/></g></g></g></g></svg>